Coordinates
version=1
nRows=19
nColumns=34
inDegrees=yes

Units are S.I. units (second, meters, Newtons, ...)
If the header above contains a line with 'inDegrees', this indicates whether rotational values are in degrees (yes) or radians (no).

endheader
time	pelvis_tilt	pelvis_list	pelvis_rotation	pelvis_tx	pelvis_ty	pelvis_tz	hip_flexion_r	hip_adduction_r	hip_rotation_r	knee_angle_r	ankle_angle_r	subtalar_angle_r	mtp_angle_r	hip_flexion_l	hip_adduction_l	hip_rotation_l	knee_angle_l	ankle_angle_l	subtalar_angle_l	mtp_angle_l	lumbar_extension	lumbar_bending	lumbar_rotation	arm_flex_r	arm_add_r	arm_rot_r	elbow_flex_r	pro_sup_r	arm_flex_l	arm_add_l	arm_rot_l	elbow_flex_l	pro_sup_l
      8.03333330	    -30.02582423	     14.17168576	     -7.80010099	     -2.15755010	      0.90868908	      0.64637305	     38.59174519	     -9.70878321	      6.98180926	      2.04919761	     -4.18969108	     -2.66222878	      0.00000000	     27.34089992	      4.01544283	    -32.91403811	      0.00000000	      3.58301277	     24.85898159	      0.00000000	     -0.30492379	     27.61521993	    -10.61580286	     -4.31104669	     -5.39017801	    -38.64240265	     48.62330619	     88.92750910	     -6.17584021	    -15.14404489	     18.62401490	     56.45964974	     77.07066484
      8.05000000	    -29.21247848	     13.92358389	     -8.23940702	     -2.15297609	      0.90652501	      0.64672223	     37.65521727	     -9.44232714	      6.34467172	      2.46615139	     -2.88103908	     -1.54874461	      0.00000000	     26.40426704	      3.73188894	    -32.62904143	      0.00000000	      4.18591757	     24.46386839	      0.00000000	     -0.72374330	     27.34714804	    -11.26779597	     -4.14866125	     -5.78196712	    -36.70357337	     48.75020188	     88.98097383	     -7.20983829	    -15.18652582	     17.33318192	     57.06557380	     77.17084122
      8.06666670	    -28.94157252	     13.77585995	     -8.75640844	     -2.14578487	      0.90643722	      0.64695663	     37.24628751	     -9.11174566	      6.38418910	      2.84389934	     -2.38738509	     -1.58714554	      0.00000000	     25.98932094	      3.42125736	    -32.66068189	      0.00000000	      4.64902149	     24.36025825	      0.00000000	     -0.08331857	     27.11180656	    -11.33983976	     -4.39089009	     -6.26015605	    -36.64791983	     48.57692531	     88.93454150	     -7.80621376	    -14.88676992	     17.10361872	     57.10332338	     77.18815880
      8.08333330	    -28.54103336	     13.63911419	     -9.37885021	     -2.13946535	      0.90284658	      0.64767329	     36.87796067	     -8.82962394	      5.88568176	      3.55226796	     -1.52306642	     -0.46108528	      0.00000000	     25.37482171	      3.16347161	    -32.68618490	      0.00000000	      5.28234279	     24.06900849	      0.00000000	      0.28628524	     26.72724927	    -12.60751485	     -3.59644140	     -7.10221554	    -34.78756582	     46.93906421	     88.28002402	    -10.11535114	    -13.89168089	     13.30048797	     57.96625032	     77.40448612
      8.10000000	    -28.19525229	     13.55184496	    -10.03469971	     -2.13531670	      0.90113566	      0.64963287	     36.56728961	     -8.53223089	      6.30304962	      4.18041119	     -0.82384778	     -0.50587126	      0.00000000	     24.74481102	      2.95284794	    -32.83351306	      0.00000000	      5.73920605	     23.63978582	      0.00000000	      0.79641105	     26.41953157	    -12.45022467	     -3.91804291	     -7.60854044	    -34.99017533	     46.71727500	     88.20130706	    -10.91929244	    -13.58250537	     13.32249463	     57.83673717	     77.44521564
      8.11666670	    -27.70859657	     13.60308886	    -10.75654226	     -2.13258204	      0.90263831	      0.65251394	     36.44445207	     -8.31433848	      6.81200006	      5.19233644	      0.14632392	     -0.06603834	      0.00000000	     23.95633580	      2.88834199	    -32.81138451	      0.00000000	      5.97440710	     22.64150121	      0.00000000	      0.94889577	     25.75679409	    -11.91642096	     -3.81080869	     -7.91863333	    -35.61052536	     45.29824824	     87.88958802	    -11.58107126	    -13.20080786	     12.60212178	     57.51258791	     77.51246798
      8.13333330	    -27.20657847	     13.44650697	    -11.22233777	     -2.12866955	      0.90211530	      0.65491679	     36.03615477	     -8.03127493	      7.13977887	      5.98694601	      1.23720675	      0.25626595	      0.00000000	     23.05754883	      2.73414245	    -32.57065694	      0.00000000	      6.15866755	     21.69885855	      0.00000000	      1.27640574	     25.20207880	    -11.75248582	     -3.58420975	     -8.17332229	    -36.30687658	     43.99745133	     87.54066261	    -12.32926714	    -12.81367784	     11.87187692	     57.21583789	     77.58220537
      8.15000000	    -26.78855151	     13.18280592	    -11.52837588	     -2.12308043	      0.90349480	      0.65710289	     35.45201712	     -7.69875452	      7.54837921	      6.53820725	      2.25446364	      0.22926253	      0.00000000	     22.20305417	      2.48425735	    -32.39312820	      0.00000000	      6.27649025	     21.35872412	      0.00000000	      1.87418172	     24.78031597	    -11.59198205	     -3.75050879	     -8.46850619	    -36.51707757	     43.66420105	     87.44029420	    -12.98301408	    -12.52096606	     11.72539152	     56.97599337	     77.59570850
      8.16666670	    -25.80732695	     12.80333544	    -12.04160323	     -2.11674357	      0.90616678	      0.65962599	     34.26731904	     -7.33582219	      7.80275283	      7.12409602	      3.38288306	      0.85291376	      0.00000000	     20.73667973	      2.19685538	    -31.74773774	      0.00000000	      6.44502022	     20.39062778	      0.00000000	      1.70836949	     24.25877998	    -11.31797530	     -3.24854833	     -8.67797512	    -36.71719964	     42.39881120	     87.02735624	    -13.47882684	    -11.94020842	     10.60642435	     56.05461812	     77.58672467
      8.18333330	    -25.06943549	     12.34167433	    -12.39165458	     -2.11013424	      0.90868102	      0.66231107	     33.13363776	     -6.90601645	      8.31744893	      7.64243522	      4.59067901	      1.17035617	      0.00000000	     19.44637431	      1.81141758	    -31.05825487	      0.00000000	      7.20649596	     20.21325587	      0.00000000	      2.01327489	     23.92612431	    -11.17021151	     -3.08710636	     -8.91103834	    -36.52121172	     42.01128367	     86.83071348	    -14.08765524	    -11.50188182	     10.18828326	     55.29680745	     77.57107278
      8.20000000	    -23.97165279	     11.74393471	    -12.62840343	     -2.10400417	      0.91408516	      0.66519708	     31.25423135	     -6.58122556	      8.56012397	      7.72092151	      5.60303602	      1.89492595	      0.00000000	     17.75350502	      1.42944154	    -30.33255662	      0.00000000	      7.58185839	     19.92601599	      0.00000000	      1.99196232	     23.71178529	    -10.97437981	     -2.77670803	     -9.17562404	    -36.08245072	     40.98521104	     86.56529496	    -14.35299631	    -10.91524753	      9.49413328	     53.84942436	     77.49125684
      8.21666670	    -22.88415634	     11.13038422	    -12.60840339	     -2.09839661	      0.92096930	      0.66809587	     29.14293289	     -6.36716239	      8.42323418	      7.43461049	      6.06196944	      2.56752373	      0.00000000	     16.17743891	      1.06258777	    -29.71520476	      0.00000000	      7.37515286	     19.67834624	      0.00000000	      1.99869182	     23.34777005	    -11.00048442	     -2.37254966	     -9.44688485	    -35.65728493	     39.43620054	     86.24517386	    -14.42111665	    -10.36555685	      8.92757704	     52.28203567	     77.39634203
      8.23333330	    -21.75965432	     10.54438164	    -12.46678868	     -2.09233144	      0.92625126	      0.67073911	     26.87327686	     -6.21476853	      7.92592305	      6.82266037	      6.13958284	      3.04186304	      0.00000000	     14.69202011	      0.73408607	    -29.32053064	      0.00000000	      6.98812805	     19.30211302	      0.00000000	      2.00770356	     22.92275096	    -11.09376137	     -1.85394592	     -9.68271531	    -35.36164476	     37.50644318	     85.84485425	    -14.51788282	     -9.91152229	      8.43549029	     50.72980719	     77.28861225
      8.25000000	    -20.74444180	     10.01379830	    -12.14676793	     -2.08548877	      0.92731927	      0.67268526	     24.51269605	     -6.11292669	      7.42000736	      5.72728219	      5.91680962	      3.44927842	      0.00000000	     13.39001577	      0.46334519	    -28.93639409	      0.00000000	      6.44536857	     18.99262404	      0.00000000	      2.15371219	     22.41379450	    -11.12137735	     -1.73297716	     -9.93843886	    -35.34058893	     35.88846879	     85.53370688	    -14.73797061	     -9.52289936	      8.07249237	     49.60825296	     77.19844972
      8.26666670	    -19.39848940	      9.35958149	    -11.74394676	     -2.07854119	      0.92695089	      0.67408023	     21.71527378	     -5.96032624	      6.67368133	      4.50523323	      6.05462501	      3.79438633	      0.00000000	     11.82598314	      0.18194171	    -28.64274804	      0.00000000	      6.28439579	     18.28995149	      0.00000000	      1.91823149	     21.91584156	    -11.36624172	     -1.26815194	    -10.23290294	    -35.31219258	     34.10574723	     85.09833605	    -14.91769760	     -9.23302453	      7.53182926	     48.35406128	     77.08134528
      8.28333330	    -18.15075319	      8.80176665	    -11.18826758	     -2.07186352	      0.92802694	      0.67565205	     18.95431592	     -5.89310291	      6.10435270	      3.16403895	      6.32032903	      4.21654015	      0.00000000	     10.50072892	     -0.01025873	    -28.20440753	      0.00000000	      6.01582572	     17.59172511	      0.00000000	      1.71318624	     21.30435923	    -11.55417114	     -1.02511691	    -10.50312383	    -34.99826724	     32.64467901	     84.61788495	    -15.26622391	     -8.98612428	      6.93811388	     47.41853744	     76.97339573
      8.30000000	    -16.91766788	      8.28324587	    -10.47846459	     -2.06720377	      0.93105800	      0.67762183	     16.20322535	     -5.83888667	      5.48648991	      1.79868893	      6.51293591	      4.64406657	      0.00000000	      9.46177803	     -0.18701239	    -27.67717707	      0.00000000	      5.73429181	     16.91276603	      0.00000000	      1.38285259	     20.60635716	    -11.67475946	     -0.89647274	    -10.68809488	    -34.26769023	     31.57921971	     84.15873822	    -15.47398953	     -8.95396094	      6.42986795	     46.73296422	     76.91183851
      8.31666670	    -15.76364072	      7.82073362	     -9.76439752	     -2.06490128	      0.93514504	      0.67951546	     13.61396876	     -5.73759394	      4.89907391	      0.43809385	      6.74970967	      5.05475493	      0.00000000	      8.81643989	     -0.38720303	    -27.20960616	      0.00000000	      5.59323096	     16.39229590	      0.00000000	      0.82289323	     19.86075992	    -11.64620275	     -0.80909197	    -10.82966627	    -33.10129494	     30.81235383	     83.74732251	    -15.53495961	     -9.13795934	      6.02717589	     46.22362435	     76.89848555
      8.33333330	    -14.86400443	      7.51659435	     -9.30374447	     -2.06572621	      0.93878223	      0.68107386	     12.01997586	     -5.59600621	      4.28687718	      0.00000000	      7.47974073	      5.92260176	      0.00000000	      8.82913587	     -0.57786861	    -27.03948315	      0.00000000	      5.54110622	     15.95131198	      0.00000000	      0.05558367	     18.96900613	    -11.24929569	     -0.69453580	    -10.98674990	    -31.21454489	     30.29291044	     83.27286232	    -15.36829985	     -9.51177580	      5.52124722	     45.93003084	     76.92985716
